<svg width="153" height="144" viewBox="0 0 153 144" fill="none" xmlns="http://www.w3.org/2000/svg">
<g clip-path="url(#clip0_74_1422)">
<path opacity="0.5" d="M129.626 79.0139C129.626 114.407 100.934 143.098 65.5415 143.098C30.1486 143.098 1.45703 114.407 1.45703 79.0139C1.45703 43.6211 30.1486 14.9294 65.5415 14.9294C100.934 14.9294 129.626 43.6211 129.626 79.0139Z" fill="white"/>
<path d="M96.3468 123.944C87.5851 129.963 76.9748 133.485 65.5418 133.485C54.1085 133.485 43.498 129.963 34.7362 123.944C30.8664 121.285 29.2127 116.222 31.4626 112.101C36.1269 103.559 45.7378 98.2386 65.5415 98.2386C85.3455 98.2386 94.9564 103.559 99.6205 112.102C101.87 116.222 100.217 121.286 96.3468 123.944Z" fill="white"/>
<path d="M65.5419 79.0132C76.1598 79.0132 84.7672 70.4058 84.7672 59.7879C84.7672 49.17 76.1598 40.5625 65.5419 40.5625C54.924 40.5625 46.3165 49.17 46.3165 59.7879C46.3165 70.4058 54.924 79.0132 65.5419 79.0132Z" fill="white"/>
</g>
<g filter="url(#filter0_d_74_1422)">
<rect x="102.697" y="7.60535" width="38.4507" height="38.4507" rx="19.2254" fill="#0B7C76" shape-rendering="crispEdges"/>
<path d="M120.153 34.046C120.469 33.7999 120.755 33.5136 121.327 32.9413L128.662 25.6062C127.664 25.1907 126.482 24.5081 125.363 23.3899C124.245 22.2714 123.562 21.0888 123.147 20.0904L115.812 27.4257L115.812 27.4257C115.239 27.9981 114.953 28.2843 114.707 28.5999C114.417 28.9721 114.168 29.3749 113.964 29.8011C113.792 30.1624 113.664 30.5464 113.408 31.3144L112.058 35.3642C111.932 35.7421 112.031 36.1588 112.312 36.4405C112.594 36.7221 113.011 36.8205 113.389 36.6945L117.439 35.3446C118.207 35.0886 118.591 34.9606 118.952 34.7884C119.378 34.5853 119.781 34.3364 120.153 34.046Z" fill="white"/>
<path d="M130.698 23.5708C132.221 22.0477 132.221 19.5783 130.698 18.0552C129.175 16.5321 126.705 16.5321 125.182 18.0552L124.302 18.9349C124.314 18.9713 124.327 19.0082 124.34 19.0455C124.662 19.975 125.271 21.1934 126.415 22.3379C127.56 23.4825 128.778 24.0909 129.708 24.4133C129.745 24.4262 129.782 24.4387 129.818 24.4507L130.698 23.5708Z" fill="white"/>
</g>
<defs>
<filter id="filter0_d_74_1422" x="91.7114" y="0.281403" width="60.4225" height="60.4225" filterUnits="userSpaceOnUse" color-interpolation-filters="sRGB">
<feFlood flood-opacity="0" result="BackgroundImageFix"/>
<feColorMatrix in="SourceAlpha" type="matrix" values="0 0 0 0 0 0 0 0 0 0 0 0 0 0 0 0 0 0 127 0" result="hardAlpha"/>
<feOffset dy="3.66197"/>
<feGaussianBlur stdDeviation="5.49296"/>
<feComposite in2="hardAlpha" operator="out"/>
<feColorMatrix type="matrix" values="0 0 0 0 0.0509804 0 0 0 0 0.0392157 0 0 0 0 0.172549 0 0 0 0.06 0"/>
<feBlend mode="normal" in2="BackgroundImageFix" result="effect1_dropShadow_74_1422"/>
<feBlend mode="normal" in="SourceGraphic" in2="effect1_dropShadow_74_1422" result="shape"/>
</filter>
<clipPath id="clip0_74_1422">
<rect width="128.169" height="128.169" fill="white" transform="translate(1 14.9296)"/>
</clipPath>
</defs>
</svg>
