<svg width="24" height="24" viewBox="0 0 24 24" fill="none" xmlns="http://www.w3.org/2000/svg">
<path fill-rule="evenodd" clip-rule="evenodd" d="M7.61066 2.38179C8.00591 2.38179 8.32631 2.7022 8.32631 3.09744V3.82522C8.95802 3.81307 9.65399 3.81308 10.4194 3.81309H14.3439C15.1093 3.81308 15.8053 3.81307 16.437 3.82522V3.09744C16.437 2.7022 16.7574 2.38179 17.1526 2.38179C17.5479 2.38179 17.8683 2.7022 17.8683 3.09744V3.88664C18.1163 3.90556 18.3512 3.92933 18.5735 3.95921C19.6922 4.10962 20.5977 4.42652 21.3118 5.14061C22.0259 5.8547 22.3428 6.76018 22.4932 7.87891C22.5412 8.23643 22.5735 8.62662 22.5951 9.05171C22.6237 9.12898 22.6393 9.21253 22.6393 9.29973C22.6393 9.36588 22.6303 9.42992 22.6135 9.49073C22.6393 10.256 22.6393 11.1249 22.6393 12.1085V14.1245C22.6393 15.8781 22.6393 17.2671 22.4932 18.3541C22.3428 19.4729 22.0259 20.3783 21.3118 21.0924C20.5977 21.8065 19.6922 22.1234 18.5735 22.2738C17.4864 22.42 16.0975 22.42 14.3439 22.42H10.4194C8.66584 22.42 7.27688 22.42 6.18984 22.2738C5.07112 22.1234 4.16563 21.8065 3.45155 21.0924C2.73746 20.3783 2.42055 19.4729 2.27014 18.3541C2.124 17.2671 2.12401 15.8781 2.12402 14.1246V12.1085C2.12402 11.1249 2.12401 10.256 2.1498 9.49073C2.133 9.42993 2.12402 9.36588 2.12402 9.29973C2.12402 9.21253 2.13962 9.12897 2.16817 9.0517C2.18982 8.62662 2.22208 8.23643 2.27014 7.87891C2.42055 6.76018 2.73746 5.8547 3.45155 5.14061C4.16563 4.42652 5.07112 4.10962 6.18984 3.95921C6.4121 3.92933 6.64698 3.90556 6.89502 3.88664V3.09744C6.89502 2.7022 7.21542 2.38179 7.61066 2.38179ZM3.56781 10.0154C3.55563 10.6382 3.55532 11.3474 3.55532 12.1623V14.0707C3.55532 15.8902 3.55684 17.1828 3.68868 18.1634C3.81775 19.1234 4.0598 19.6765 4.46363 20.0804C4.86745 20.4842 5.42055 20.7262 6.38056 20.8553C7.36115 20.9871 8.65377 20.9887 10.4733 20.9887H14.2901C16.1095 20.9887 17.4022 20.9871 18.3828 20.8553C19.3428 20.7262 19.8959 20.4842 20.2997 20.0804C20.7035 19.6765 20.9456 19.1234 21.0746 18.1634C21.2065 17.1828 21.208 15.8902 21.208 14.0707V12.1623C21.208 11.3474 21.2077 10.6382 21.1955 10.0154H3.56781ZM21.13 8.58408H3.63326C3.64854 8.40336 3.66682 8.2322 3.68868 8.06962C3.81775 7.10961 4.0598 6.55652 4.46363 6.15269C4.86745 5.74886 5.42055 5.50681 6.38056 5.37774C7.36115 5.24591 8.65378 5.24439 10.4733 5.24439H14.2901C16.1095 5.24439 17.4022 5.24591 18.3828 5.37774C19.3428 5.50681 19.8959 5.74886 20.2997 6.15269C20.7035 6.55652 20.9456 7.10961 21.0746 8.06962C21.0965 8.2322 21.1148 8.40336 21.13 8.58408Z" fill="#2C2D3A"/>
</svg>
