<svg width="19" height="19" viewBox="0 0 19 19" fill="none" xmlns="http://www.w3.org/2000/svg">
<path fill-rule="evenodd" clip-rule="evenodd" d="M9.21179 2.09749C5.31436 2.09749 2.15486 5.25698 2.15486 9.15442C2.15486 13.0518 5.31436 16.2113 9.21179 16.2113C13.1092 16.2113 16.2687 13.0518 16.2687 9.15442C16.2687 5.25698 13.1092 2.09749 9.21179 2.09749ZM1.0105 9.15442C1.0105 4.62497 4.68234 0.953125 9.21179 0.953125C13.7412 0.953125 17.4131 4.62497 17.4131 9.15442C17.4131 13.6839 13.7412 17.3557 9.21179 17.3557C4.68234 17.3557 1.0105 13.6839 1.0105 9.15442ZM9.21179 5.53059C9.5278 5.53059 9.78397 5.78676 9.78397 6.10277V8.91741L11.5237 10.6571C11.7471 10.8805 11.7471 11.2428 11.5237 11.4663C11.3002 11.6897 10.9379 11.6897 10.7145 11.4663L8.80719 9.55901C8.69989 9.45171 8.63961 9.30617 8.63961 9.15442V6.10277C8.63961 5.78676 8.89578 5.53059 9.21179 5.53059Z" fill="#2C2D3A"/>
</svg>
