<svg width="19" height="19" viewBox="0 0 19 19" fill="none" xmlns="http://www.w3.org/2000/svg">
<path fill-rule="evenodd" clip-rule="evenodd" d="M12.1348 1.36861H9.04014C7.6381 1.3686 6.52758 1.36859 5.65846 1.48544C4.76401 1.6057 4.04004 1.85907 3.46911 2.43001C2.89818 3.00094 2.6448 3.72491 2.52454 4.61936C2.40769 5.48848 2.4077 6.59899 2.40772 8.00104V12.6215C2.40772 14.0499 3.45447 15.2338 4.82272 15.4479C4.92798 16.0308 5.12942 16.5283 5.53439 16.9333C5.9936 17.3925 6.57179 17.59 7.25849 17.6823C7.91991 17.7712 8.76088 17.7712 9.80423 17.7712H12.1767C13.22 17.7712 14.061 17.7712 14.7224 17.6823C15.4091 17.59 15.9873 17.3925 16.4465 16.9333C16.9057 16.474 17.1033 15.8959 17.1956 15.2092C17.2845 14.5477 17.2845 13.7068 17.2845 12.6634V8.76514C17.2845 7.72178 17.2845 6.88081 17.1956 6.21939C17.1033 5.53269 16.9057 4.9545 16.4465 4.49529C16.0416 4.09032 15.5441 3.88888 14.9612 3.78362C14.7471 2.41537 13.5632 1.36861 12.1348 1.36861ZM13.7593 3.6735C13.5283 2.99837 12.8882 2.51298 12.1348 2.51298H9.08319C7.62845 2.51298 6.59496 2.5142 5.81095 2.6196C5.04339 2.7228 4.60117 2.91633 4.2783 3.2392C3.95543 3.56207 3.7619 4.00429 3.65871 4.77184C3.5533 5.55586 3.55208 6.58935 3.55208 8.04408V12.6215C3.55208 13.375 4.03747 14.015 4.7126 14.246C4.69643 13.7807 4.69644 13.2545 4.69645 12.6634V8.76513C4.69643 7.72178 4.69642 6.88081 4.78534 6.21939C4.87767 5.53269 5.07518 4.9545 5.53439 4.49529C5.9936 4.03608 6.57179 3.83857 7.25849 3.74624C7.91991 3.65732 8.76088 3.65733 9.80423 3.65735H12.1767C12.7678 3.65734 13.294 3.65733 13.7593 3.6735ZM6.34358 5.30448C6.55473 5.09333 6.85117 4.95567 7.41098 4.88041C7.98724 4.80293 8.751 4.80171 9.8461 4.80171H12.1348C13.2299 4.80171 13.9937 4.80293 14.5699 4.88041C15.1298 4.95567 15.4262 5.09333 15.6373 5.30448C15.8485 5.51563 15.9862 5.81207 16.0614 6.37188C16.1389 6.94814 16.1401 7.7119 16.1401 8.807V12.6215C16.1401 13.7166 16.1389 14.4804 16.0614 15.0567C15.9862 15.6165 15.8485 15.9129 15.6373 16.1241C15.4262 16.3352 15.1298 16.4729 14.5699 16.5481C13.9937 16.6256 13.2299 16.6268 12.1348 16.6268H9.8461C8.751 16.6268 7.98724 16.6256 7.41098 16.5481C6.85117 16.4729 6.55473 16.3352 6.34358 16.1241C6.13243 15.9129 5.99477 15.6165 5.91951 15.0567C5.84203 14.4804 5.84081 13.7166 5.84081 12.6215V8.80699C5.84081 7.7119 5.84203 6.94814 5.91951 6.37188C5.99477 5.81207 6.13243 5.51563 6.34358 5.30448Z" fill="#2C2D3A"/>
</svg>
