<svg width="32" height="32" viewBox="0 0 32 32" fill="none" xmlns="http://www.w3.org/2000/svg">
<path d="M10.168 10.168C10.392 9.94399 10.7552 9.94399 10.9793 10.168L16 15.1887L21.0207 10.168C21.2448 9.94399 21.608 9.94399 21.832 10.168C22.056 10.392 22.056 10.7552 21.832 10.9793L16.8113 16L21.832 21.0207C22.056 21.2448 22.056 21.608 21.832 21.832C21.608 22.056 21.2448 22.056 21.0207 21.832L16 16.8113L10.9793 21.832C10.7552 22.056 10.392 22.056 10.168 21.832C9.94399 21.608 9.94399 21.2448 10.168 21.0207L15.1887 16L10.168 10.9793C9.94399 10.7552 9.94399 10.392 10.168 10.168Z" fill="white"/>
</svg>
