<svg width="23" height="23" viewBox="0 0 23 23" fill="none" xmlns="http://www.w3.org/2000/svg">
<path d="M5.19808 11.6968C4.92993 11.4286 4.92993 10.9939 5.19808 10.7258L7.02906 8.89477C7.2972 8.62663 7.73195 8.62663 8.00009 8.89477C8.26823 9.16291 8.26823 9.59766 8.00009 9.8658L7.34124 10.5247L13.923 10.5247C14.3022 10.5247 14.6096 10.8321 14.6096 11.2113C14.6096 11.5905 14.3022 11.8979 13.923 11.8979L7.34124 11.8979L8.00009 12.5567C8.26823 12.8249 8.26823 13.2596 8.00009 13.5278C7.73195 13.7959 7.2972 13.7959 7.02906 13.5278L5.19808 11.6968Z" fill="#F6695E"/>
<path fill-rule="evenodd" clip-rule="evenodd" d="M12.9575 1.36972H13.9735C15.2255 1.3697 16.2346 1.36969 17.0283 1.4764C17.8524 1.58719 18.5462 1.8242 19.0973 2.37525C19.6483 2.9263 19.8853 3.62013 19.9961 4.44417C20.1028 5.23788 20.1028 6.24705 20.1028 7.49907V14.9235C20.1028 16.1755 20.1028 17.1847 19.9961 17.9784C19.8853 18.8024 19.6483 19.4962 19.0973 20.0473C18.5462 20.5983 17.8524 20.8354 17.0283 20.9461C16.2346 21.0529 15.2255 21.0528 13.9735 21.0528H12.9575C11.7055 21.0528 10.6963 21.0529 9.90261 20.9461C9.07856 20.8354 8.38473 20.5983 7.83368 20.0473C7.46846 19.6821 7.24055 19.2533 7.09623 18.7639C6.22527 18.7628 5.49963 18.7532 4.91172 18.6742C4.21233 18.5801 3.60597 18.3766 3.12195 17.8926C2.63794 17.4086 2.43444 16.8022 2.34041 16.1029C2.25045 15.4338 2.25047 14.5863 2.25049 13.5492V8.87338C2.25047 7.8363 2.25045 6.98878 2.34041 6.31969C2.43444 5.62029 2.63794 5.01393 3.12195 4.52991C3.60597 4.0459 4.21233 3.8424 4.91172 3.74837C5.49963 3.66933 6.22527 3.65975 7.09623 3.65861C7.24055 3.16923 7.46846 2.74048 7.83368 2.37525C8.38473 1.8242 9.07856 1.58719 9.90261 1.4764C10.6963 1.36969 11.7055 1.3697 12.9575 1.36972ZM6.82975 15.7926C6.83304 16.3826 6.84278 16.9141 6.87633 17.39C6.11237 17.3871 5.54443 17.3736 5.0947 17.3132C4.54759 17.2396 4.27932 17.1079 4.09298 16.9216C3.90664 16.7353 3.77496 16.467 3.7014 15.9199C3.62519 15.353 3.62373 14.5983 3.62373 13.5V8.92254C3.62373 7.82421 3.62519 7.06953 3.7014 6.50267C3.77496 5.95555 3.90664 5.68728 4.09298 5.50094C4.27932 5.3146 4.54759 5.18292 5.0947 5.10937C5.54443 5.0489 6.11237 5.03549 6.87633 5.03253C6.84278 5.50842 6.83304 6.03992 6.82975 6.62998C6.82764 7.00919 7.13334 7.3183 7.51254 7.32042C7.89175 7.32253 8.20086 7.01683 8.20297 6.63763C8.20855 5.63654 8.23454 4.92696 8.33346 4.38842C8.42878 3.86951 8.58183 3.56916 8.80471 3.34628C9.05809 3.09291 9.41382 2.92771 10.0856 2.83739C10.7771 2.74442 11.6936 2.74296 13.0077 2.74296H13.9232C15.2373 2.74296 16.1538 2.74442 16.8454 2.83739C17.5171 2.92771 17.8729 3.09291 18.1262 3.34628C18.3796 3.59965 18.5448 3.95539 18.6351 4.62716C18.7281 5.31867 18.7296 6.23519 18.7296 7.5493V14.8732C18.7296 16.1874 18.7281 17.1039 18.6351 17.7954C18.5448 18.4672 18.3796 18.8229 18.1262 19.0763C17.8729 19.3296 17.5171 19.4948 16.8454 19.5852C16.1538 19.6781 15.2373 19.6796 13.9232 19.6796H13.0077C11.6936 19.6796 10.7771 19.6781 10.0856 19.5852C9.41382 19.4948 9.05809 19.3296 8.80471 19.0763C8.58183 18.8534 8.42878 18.553 8.33346 18.0341C8.23454 17.4956 8.20855 16.786 8.20297 15.7849C8.20086 15.4057 7.89175 15.1 7.51254 15.1021C7.13334 15.1042 6.82764 15.4134 6.82975 15.7926Z" fill="#F6695E"/>
</svg>
