<svg width="25" height="25" viewBox="0 0 25 25" fill="none" xmlns="http://www.w3.org/2000/svg">
<path fill-rule="evenodd" clip-rule="evenodd" d="M2.49951 12.2252C2.49951 10.7189 3.72061 9.4978 5.22692 9.4978C6.73322 9.4978 7.95432 10.7189 7.95432 12.2252C7.95432 13.7315 6.73322 14.9526 5.22692 14.9526C3.72061 14.9526 2.49951 13.7315 2.49951 12.2252ZM5.22692 10.9855C4.54223 10.9855 3.98719 11.5405 3.98719 12.2252C3.98719 12.9099 4.54223 13.4649 5.22692 13.4649C5.9116 13.4649 6.46665 12.9099 6.46665 12.2252C6.46665 11.5405 5.9116 10.9855 5.22692 10.9855Z" fill="#2C2D3A"/>
<path fill-rule="evenodd" clip-rule="evenodd" d="M9.442 12.2252C9.442 10.7189 10.6631 9.4978 12.1694 9.4978C13.6757 9.4978 14.8968 10.7189 14.8968 12.2252C14.8968 13.7315 13.6757 14.9526 12.1694 14.9526C10.6631 14.9526 9.442 13.7315 9.442 12.2252ZM12.1694 10.9855C11.4847 10.9855 10.9297 11.5405 10.9297 12.2252C10.9297 12.9099 11.4847 13.4649 12.1694 13.4649C12.8541 13.4649 13.4091 12.9099 13.4091 12.2252C13.4091 11.5405 12.8541 10.9855 12.1694 10.9855Z" fill="#2C2D3A"/>
<path fill-rule="evenodd" clip-rule="evenodd" d="M19.1119 9.4978C17.6056 9.4978 16.3845 10.7189 16.3845 12.2252C16.3845 13.7315 17.6056 14.9526 19.1119 14.9526C20.6182 14.9526 21.8393 13.7315 21.8393 12.2252C21.8393 10.7189 20.6182 9.4978 19.1119 9.4978ZM17.8722 12.2252C17.8722 11.5405 18.4272 10.9855 19.1119 10.9855C19.7966 10.9855 20.3516 11.5405 20.3516 12.2252C20.3516 12.9099 19.7966 13.4649 19.1119 13.4649C18.4272 13.4649 17.8722 12.9099 17.8722 12.2252Z" fill="#2C2D3A"/>
</svg>
