<svg width="25" height="24" viewBox="0 0 25 24" fill="none" xmlns="http://www.w3.org/2000/svg">
<path fill-rule="evenodd" clip-rule="evenodd" d="M21.1748 7C21.1748 7.41421 20.839 7.75 20.4248 7.75L4.4248 7.75C4.01059 7.75 3.6748 7.41421 3.6748 7C3.6748 6.58579 4.01059 6.25 4.4248 6.25L20.4248 6.25C20.839 6.25 21.1748 6.58579 21.1748 7Z" fill="#9A9BB1"/>
<path fill-rule="evenodd" clip-rule="evenodd" d="M21.1748 12C21.1748 12.4142 20.839 12.75 20.4248 12.75L4.4248 12.75C4.01059 12.75 3.6748 12.4142 3.6748 12C3.6748 11.5858 4.01059 11.25 4.4248 11.25L20.4248 11.25C20.839 11.25 21.1748 11.5858 21.1748 12Z" fill="#9A9BB1"/>
<path fill-rule="evenodd" clip-rule="evenodd" d="M21.1748 17C21.1748 17.4142 20.839 17.75 20.4248 17.75L4.4248 17.75C4.01059 17.75 3.6748 17.4142 3.6748 17C3.6748 16.5858 4.01059 16.25 4.4248 16.25L20.4248 16.25C20.839 16.25 21.1748 16.5858 21.1748 17Z" fill="#9A9BB1"/>
</svg>
