<svg width="25" height="24" viewBox="0 0 25 24" fill="none" xmlns="http://www.w3.org/2000/svg">
<path d="M12.5752 22C18.098 22 22.5752 17.5228 22.5752 12C22.5752 6.47715 18.098 2 12.5752 2C7.05235 2 2.5752 6.47715 2.5752 12C2.5752 13.5997 2.95081 15.1116 3.61866 16.4525C3.79613 16.8088 3.85521 17.2161 3.75231 17.6006L3.15671 19.8267C2.89815 20.793 3.78221 21.677 4.74854 21.4185L6.97458 20.8229C7.35913 20.72 7.7664 20.7791 8.12272 20.9565C9.46356 21.6244 10.9755 22 12.5752 22Z" fill="#9A9BB1"/>
<path d="M15.5752 12C15.5752 12.5523 16.0229 13 16.5752 13C17.1275 13 17.5752 12.5523 17.5752 12C17.5752 11.4477 17.1275 11 16.5752 11C16.0229 11 15.5752 11.4477 15.5752 12Z" fill="white"/>
<path d="M11.5752 12C11.5752 12.5523 12.0229 13 12.5752 13C13.1275 13 13.5752 12.5523 13.5752 12C13.5752 11.4477 13.1275 11 12.5752 11C12.0229 11 11.5752 11.4477 11.5752 12Z" fill="white"/>
<path d="M7.5752 12C7.5752 12.5523 8.02291 13 8.5752 13C9.12748 13 9.5752 12.5523 9.5752 12C9.5752 11.4477 9.12748 11 8.5752 11C8.02291 11 7.5752 11.4477 7.5752 12Z" fill="white"/>
</svg>
