<svg width="23" height="23" viewBox="0 0 23 23" fill="none" xmlns="http://www.w3.org/2000/svg">
<path fill-rule="evenodd" clip-rule="evenodd" d="M13.7002 2.70977C15.3743 1.03571 18.0885 1.03571 19.7625 2.70977C21.4366 4.38384 21.4366 7.09804 19.7625 8.77211L11.0788 17.4558C10.5827 17.952 10.2906 18.2441 9.96572 18.4975C9.58278 18.7962 9.16842 19.0523 8.73 19.2612C8.35804 19.4385 7.96619 19.5691 7.30053 19.7909L4.25091 20.8075L3.51661 21.0522C2.92102 21.2508 2.26439 21.0958 1.82047 20.6518C1.37654 20.2079 1.22153 19.5513 1.42006 18.9557L2.68136 15.1718C2.90322 14.5061 3.03383 14.1143 3.2111 13.7423C3.42004 13.3039 3.67612 12.8895 3.97482 12.5066C4.22824 12.1817 4.52032 11.8896 5.01649 11.3935L13.7002 2.70977ZM4.21923 19.3705L6.82062 18.5034C7.54488 18.262 7.8526 18.1581 8.13921 18.0215C8.48759 17.8555 8.81685 17.652 9.12116 17.4147C9.3715 17.2194 9.60198 16.9906 10.1418 16.4508L17.0716 9.52097C16.3496 9.26632 15.4195 8.79431 14.5487 7.92356C13.678 7.05281 13.206 6.12268 12.9513 5.40068L6.02153 12.3305C5.4817 12.8703 5.25289 13.1008 5.05763 13.3511C4.82028 13.6555 4.61679 13.9847 4.45075 14.3331C4.31416 14.6197 4.21034 14.9274 3.96892 15.6517L3.10179 18.2531L4.21923 19.3705ZM14.0652 4.2868C14.0965 4.44697 14.1494 4.66471 14.2378 4.91925C14.4366 5.4923 14.8121 6.24489 15.5198 6.95253C16.2274 7.66018 16.98 8.03573 17.5531 8.23455C17.8076 8.32286 18.0253 8.37577 18.1855 8.40708L18.7915 7.80108C19.9293 6.6633 19.9293 4.81859 18.7915 3.6808C17.6537 2.54302 15.809 2.54302 14.6712 3.6808L14.0652 4.2868Z" fill="white"/>
</svg>
