<svg width="25" height="24" viewBox="0 0 25 24" fill="none" xmlns="http://www.w3.org/2000/svg">
<path fill-rule="evenodd" clip-rule="evenodd" d="M8.52539 9C8.52539 6.92893 10.2043 5.25 12.2754 5.25C14.3465 5.25 16.0254 6.92893 16.0254 9C16.0254 11.0711 14.3465 12.75 12.2754 12.75C10.2043 12.75 8.52539 11.0711 8.52539 9ZM12.2754 6.75C11.0328 6.75 10.0254 7.75736 10.0254 9C10.0254 10.2426 11.0328 11.25 12.2754 11.25C13.518 11.25 14.5254 10.2426 14.5254 9C14.5254 7.75736 13.518 6.75 12.2754 6.75Z" fill="#9A9BB1"/>
<path fill-rule="evenodd" clip-rule="evenodd" d="M1.52539 12C1.52539 6.06294 6.33833 1.25 12.2754 1.25C18.2125 1.25 23.0254 6.06294 23.0254 12C23.0254 17.9371 18.2125 22.75 12.2754 22.75C6.33833 22.75 1.52539 17.9371 1.52539 12ZM12.2754 2.75C7.16676 2.75 3.02539 6.89137 3.02539 12C3.02539 14.5456 4.05366 16.851 5.71749 18.5235C5.89789 17.5504 6.25233 16.6329 6.96376 15.8951C8.02791 14.7915 9.72955 14.25 12.2753 14.25C14.8211 14.25 16.5228 14.7915 17.5869 15.8951C18.2984 16.6329 18.6528 17.5505 18.8332 18.5236C20.4971 16.8511 21.5254 14.5456 21.5254 12C21.5254 6.89137 17.384 2.75 12.2754 2.75ZM17.4691 19.6554C17.3672 18.4435 17.104 17.5553 16.5071 16.9363C15.8577 16.2628 14.6543 15.75 12.2753 15.75C9.89638 15.75 8.693 16.2628 8.04354 16.9363C7.44666 17.5553 7.1835 18.4434 7.08162 19.6553C8.56223 20.6618 10.3501 21.25 12.2754 21.25C14.2006 21.25 15.9885 20.6618 17.4691 19.6554Z" fill="#9A9BB1"/>
</svg>
