<svg width="22" height="23" viewBox="0 0 22 23" fill="none" xmlns="http://www.w3.org/2000/svg">
<path fill-rule="evenodd" clip-rule="evenodd" d="M10.986 20.8592C6.67031 20.8592 4.51247 20.8592 3.17176 19.5185C1.83105 18.1777 1.83105 16.0199 1.83105 11.7042C1.83105 7.38856 1.83105 5.23072 3.17176 3.89001C4.51247 2.5493 6.67031 2.5493 10.986 2.5493C15.3017 2.5493 17.4595 2.5493 18.8002 3.89001C20.1409 5.23072 20.1409 7.38856 20.1409 11.7042C20.1409 16.0199 20.1409 18.1777 18.8002 19.5185C17.4595 20.8592 15.3017 20.8592 10.986 20.8592ZM14.6757 8.92998C14.9439 9.19813 14.9439 9.63287 14.6757 9.90101L10.0983 14.4785C9.83012 14.7466 9.39537 14.7466 9.12723 14.4785L7.29624 12.6475C7.0281 12.3793 7.0281 11.9446 7.29624 11.6765C7.56439 11.4083 7.99913 11.4083 8.26727 11.6765L9.61274 13.0219L13.7047 8.92998C13.9728 8.66184 14.4076 8.66184 14.6757 8.92998Z" fill="#13AEA5"/>
</svg>
