<svg width="23" height="23" viewBox="0 0 23 23" fill="none" xmlns="http://www.w3.org/2000/svg">
<path fill-rule="evenodd" clip-rule="evenodd" d="M11.3278 1.86269H11.4329C13.5462 1.86267 15.2024 1.86267 16.4946 2.0364C17.8172 2.21422 18.8609 2.58531 19.6801 3.4045C20.4993 4.22369 20.8704 5.26738 21.0482 6.59002C21.2219 7.88223 21.2219 9.53839 21.2219 11.6517V11.7568C21.2219 13.8701 21.2219 15.5262 21.0482 16.8184C20.8704 18.1411 20.4993 19.1848 19.6801 20.004C18.8609 20.8232 17.8172 21.1942 16.4946 21.3721C15.2024 21.5458 13.5462 21.5458 11.4329 21.5458H11.3278C9.21452 21.5458 7.55836 21.5458 6.26615 21.3721C4.94351 21.1942 3.89983 20.8232 3.08063 20.004C2.26144 19.1848 1.89036 18.1411 1.71253 16.8184C1.5388 15.5262 1.53881 13.8701 1.53882 11.7568V11.6517C1.53881 9.53839 1.5388 7.88223 1.71253 6.59002C1.89036 5.26738 2.26144 4.22369 3.08063 3.4045C3.89983 2.58531 4.94351 2.21422 6.26615 2.0364C7.55836 1.86267 9.21452 1.86267 11.3278 1.86269ZM6.44914 3.39739C5.27877 3.55474 4.57318 3.85401 4.05166 4.37553C3.53014 4.89704 3.23088 5.60263 3.07352 6.773C2.91352 7.96312 2.91206 9.52699 2.91206 11.7042C2.91206 13.8815 2.91352 15.4453 3.07352 16.6355C3.23088 17.8058 3.53014 18.5114 4.05166 19.0329C4.57318 19.5545 5.27877 19.8537 6.44914 20.0111C7.63926 20.1711 9.20312 20.1725 11.3804 20.1725C13.5576 20.1725 15.1215 20.1711 16.3116 20.0111C17.482 19.8537 18.1876 19.5545 18.7091 19.0329C19.2306 18.5114 19.5299 17.8058 19.6872 16.6355C19.8472 15.4453 19.8487 13.8815 19.8487 11.7042C19.8487 9.52699 19.8472 7.96312 19.6872 6.773C19.5299 5.60263 19.2306 4.89704 18.7091 4.37553C18.1876 3.85401 17.482 3.55474 16.3116 3.39739C15.1215 3.23738 13.5576 3.23593 11.3804 3.23593C9.20312 3.23593 7.63926 3.23738 6.44914 3.39739Z" fill="#BABDC1"/>
</svg>
